<?xml version="1.0" encoding="utf-8"?>
<!-- Generator: Adobe Illustrator 22.0.0, SVG Export Plug-In . SVG Version: 6.00 Build 0)  -->
<svg version="1.1" id="Layer_1" xmlns="http://www.w3.org/2000/svg" xmlns:xlink="http://www.w3.org/1999/xlink" x="0px" y="0px"
	 viewBox="0 0 267.3 262.7" style="enable-background:new 0 0 267.3 262.7;" xml:space="preserve">
<style type="text/css">
	.st0{fill:#FFFFFF;}
	.st1{fill:#1C1C1C;}
	.st2{fill:#FFFFFF;stroke:#1C1C1C;stroke-width:0.75;stroke-miterlimit:10;}
	.st3{fill:#FFFFFF;stroke:#1C1C1C;stroke-miterlimit:10;}
</style>
<g>
	<path class="st0" d="M124.4,183.8c6.5,22.8-19.2,42.9-42.9,42.9s-50.9-20.6-42.9-42.9c6.6-18.4,37.6-122.6,42.9-117.6
		C91.9,76.1,118.6,163.7,124.4,183.8z"/>
	<path class="st1" d="M124.4,183.8c0.5,2,0.9,4,1,6c0.1,2,0,4.1-0.4,6.1c-0.8,4-2.5,7.8-4.8,11.2c-4.6,6.8-11.4,11.9-18.8,15.3
		c-7.4,3.4-15.7,5.2-23.9,4.4c-8.2-0.7-16.1-3.6-23-8c-1.7-1.1-3.4-2.3-5-3.6c-1.6-1.3-3.1-2.7-4.4-4.2c-2.7-3-5.1-6.5-6.5-10.3
		c-1.5-3.8-2-8-1.4-12.1c0-0.5,0.2-1,0.3-1.5c0.1-0.5,0.2-1,0.4-1.5c0.3-1,0.6-2,1-2.9l2-5.8c2.6-7.7,5-15.5,7.5-23.3l7.4-23.3
		c2.5-7.8,5-15.5,7.6-23.2c2.6-7.7,5.3-15.4,8.2-23c1.5-3.8,3-7.6,4.7-11.3c0.9-1.8,1.8-3.7,2.9-5.4c0.3-0.4,0.6-0.8,1.1-1.2
		c0.2-0.2,0.5-0.4,0.9-0.4c0.2,0,0.4,0.1,0.6,0.2c0.2,0.1,0.2,0.2,0.3,0.3c0.3,0.4,0.7,0.8,1,1.2l0.9,1.3c2.2,3.5,3.9,7.2,5.6,10.9
		c1.7,3.7,3.2,7.5,4.7,11.3c6,15.2,11.1,30.7,16.1,46.2C115.1,152.6,119.9,168.1,124.4,183.8z M124.3,183.8
		c-4.6-15.6-9.5-31.2-14.6-46.6c-2.6-7.7-5.2-15.4-7.9-23.1c-2.7-7.7-5.4-15.4-8.4-22.9c-1.5-3.8-3-7.6-4.7-11.3
		c-1.7-3.7-3.4-7.4-5.5-10.8l-0.9-1.2c-0.3-0.4-0.6-0.7-1-1.1c-0.1-0.1-0.2-0.2-0.2-0.2c0,0-0.1,0-0.1,0c-0.1,0-0.3,0.1-0.5,0.2
		c-0.3,0.3-0.7,0.7-0.9,1.1c-1.1,1.6-2,3.5-2.9,5.3c-1.7,3.7-3.2,7.5-4.7,11.3c-5.8,15.2-11,30.7-16.1,46.1c-5.1,15.5-10,31-15,46.5
		l-1.9,5.8c-0.3,1-0.6,1.9-0.9,2.9c-0.2,0.5-0.2,1-0.3,1.5c-0.1,0.5-0.2,1-0.3,1.5c-0.6,4,0,8.1,1.5,11.9c1.5,3.8,3.8,7.2,6.5,10.2
		c1.4,1.5,2.9,2.9,4.4,4.2c1.6,1.3,3.2,2.5,4.9,3.5c6.9,4.3,14.7,7.1,22.8,7.8c8.1,0.8,16.3-0.9,23.7-4.2
		c7.4-3.3,14.1-8.4,18.8-15.1c2.3-3.3,4-7.1,4.8-11.1c0.4-2,0.5-4,0.5-6.1C125.2,187.8,124.8,185.8,124.3,183.8z"/>
</g>
<path class="st2" d="M86.1,74.3c-1.9-4-3.6-6.9-4.9-8.2c-0.8-0.8-2.5,2-4.7,7.1"/>
<path class="st1" d="M112.4,173.5c0.5,1.9,1,3.4,1.4,4.7c4.9,17.1-14.4,32.3-32.3,32.3S43.2,195,49.2,178.2c0.4-1.1,0.9-2.5,1.5-4.3
	c0,0,0.2-0.5,0.4,0c4.7,10.2,18.1,17.9,30.4,17.9c12.5,0,25.8-7.8,30.2-18.4C111.6,173.4,112.2,172.9,112.4,173.5z"/>
<path class="st1" d="M107.9,154.3c4.1,14.2-12,26.8-26.8,26.8s-31.8-12.9-26.8-26.8c4.1-11.5,23.5-76.6,26.8-73.5
	C87.6,87,104.3,141.7,107.9,154.3z"/>
<circle class="st3" cx="81.3" cy="60.2" r="18.3"/>
<path class="st3" d="M69.4,66"/>
<g>
	<path class="st0" d="M68.3,58.9c0,0,0.1,11.9,11.2,14.5"/>
	<path class="st1" d="M69.7,58.8c-0.1,1.4,0.1,3,0.5,4.5c0.4,1.5,0.9,3,1.7,4.3c0.4,0.7,0.9,1.3,1.4,1.9c0.6,0.5,1.1,1.2,1.8,1.6
		c1.3,1,2.8,1.7,4.3,2.2c-1.6-0.3-3.3-0.7-4.7-1.6c-0.8-0.4-1.4-0.9-2.1-1.4c-0.6-0.6-1.3-1.2-1.8-1.8c-1.1-1.3-2-2.9-2.7-4.5
		c-0.3-0.8-0.6-1.6-0.8-2.5c-0.2-0.9-0.4-1.7-0.5-2.7L69.7,58.8z"/>
</g>
<g>
	<path class="st0" d="M227.9,183.8c6.5,22.8-19.2,42.9-42.9,42.9s-50.9-20.6-42.9-42.9c6.6-18.4,37.6-122.6,42.9-117.6
		C195.4,76.1,222.1,163.7,227.9,183.8z"/>
	<path class="st1" d="M227.9,183.8c0.5,2,0.9,4,1,6c0.1,2,0,4.1-0.4,6.1c-0.8,4-2.5,7.8-4.8,11.2c-4.6,6.8-11.4,11.9-18.8,15.3
		c-7.4,3.4-15.7,5.2-23.9,4.4c-8.2-0.7-16.1-3.6-23-8c-1.7-1.1-3.4-2.3-5-3.6c-1.6-1.3-3.1-2.7-4.4-4.2c-2.7-3-5.1-6.5-6.5-10.3
		c-1.5-3.8-2-8-1.4-12.1c0-0.5,0.2-1,0.3-1.5c0.1-0.5,0.2-1,0.4-1.5c0.3-1,0.6-2,1-2.9l2-5.8c2.6-7.7,5-15.5,7.5-23.3l7.4-23.3
		c2.5-7.8,5-15.5,7.6-23.2c2.6-7.7,5.3-15.4,8.2-23c1.5-3.8,3-7.6,4.7-11.3c0.9-1.8,1.8-3.7,2.9-5.4c0.3-0.4,0.6-0.8,1.1-1.2
		c0.2-0.2,0.5-0.4,0.9-0.4c0.2,0,0.4,0.1,0.6,0.2c0.2,0.1,0.2,0.2,0.3,0.3c0.3,0.4,0.7,0.8,1,1.2l0.9,1.3c2.2,3.5,3.9,7.2,5.6,10.9
		c1.7,3.7,3.2,7.5,4.7,11.3c6,15.2,11.1,30.7,16.1,46.2C218.6,152.6,223.4,168.1,227.9,183.8z M227.8,183.8
		c-4.6-15.6-9.5-31.2-14.6-46.6c-2.6-7.7-5.2-15.4-7.9-23.1c-2.7-7.7-5.4-15.4-8.4-22.9c-1.5-3.8-3-7.6-4.7-11.3
		c-1.7-3.7-3.4-7.4-5.5-10.8l-0.9-1.2c-0.3-0.4-0.6-0.7-1-1.1c-0.1-0.1-0.2-0.2-0.2-0.2c0,0-0.1,0-0.1,0c-0.1,0-0.3,0.1-0.5,0.2
		c-0.3,0.3-0.7,0.7-0.9,1.1c-1.1,1.6-2,3.5-2.9,5.3c-1.7,3.7-3.2,7.5-4.7,11.3c-5.8,15.2-11,30.7-16.1,46.1c-5.1,15.5-10,31-15,46.5
		l-1.9,5.8c-0.3,1-0.6,1.9-0.9,2.9c-0.2,0.5-0.2,1-0.3,1.5c-0.1,0.5-0.2,1-0.3,1.5c-0.6,4,0,8.1,1.5,11.9c1.5,3.8,3.8,7.2,6.5,10.2
		c1.4,1.5,2.9,2.9,4.4,4.2c1.6,1.3,3.2,2.5,4.9,3.5c6.9,4.3,14.7,7.1,22.8,7.8c8.1,0.8,16.3-0.9,23.7-4.2
		c7.4-3.3,14.1-8.4,18.8-15.1c2.3-3.3,4-7.1,4.8-11.1c0.4-2,0.5-4,0.5-6.1C228.7,187.8,228.3,185.8,227.8,183.8z"/>
</g>
<path class="st2" d="M189.6,74.3c-1.9-4-3.6-6.9-4.9-8.2c-0.8-0.8-2.5,2-4.7,7.1"/>
<path class="st1" d="M215.9,173.5c0.5,1.9,1,3.4,1.4,4.7c4.9,17.1-14.4,32.3-32.3,32.3s-38.2-15.5-32.3-32.3
	c0.4-1.1,0.9-2.5,1.5-4.3c0,0,0.2-0.5,0.4,0c4.7,10.2,18.1,17.9,30.4,17.9c12.5,0,25.8-7.8,30.2-18.4
	C215.1,173.4,215.7,172.9,215.9,173.5z"/>
<path class="st1" d="M211.4,154.3c4.1,14.2-12,26.8-26.8,26.8s-31.8-12.9-26.8-26.8c4.1-11.5,23.5-76.6,26.8-73.5
	C191.1,87,207.8,141.7,211.4,154.3z"/>
<circle class="st3" cx="184.8" cy="60.2" r="18.3"/>
<path class="st3" d="M172.9,66"/>
<g>
	<path class="st0" d="M198.1,58.8c0,0-0.1,11.9-14.9,14.5"/>
	<path class="st1" d="M199.6,58.8c-0.1,1.2-0.4,2.1-0.7,3.1c-0.3,1-0.7,1.9-1.2,2.8c-1,1.8-2.3,3.3-3.8,4.6
		c-0.8,0.6-1.6,1.2-2.4,1.6c-0.4,0.2-0.8,0.5-1.3,0.7l-1.3,0.5c-0.4,0.2-0.9,0.3-1.4,0.4l-1.4,0.4c-0.9,0.2-1.9,0.3-2.8,0.5
		c0.9-0.3,1.8-0.5,2.7-0.8l1.3-0.5c0.4-0.2,0.9-0.3,1.3-0.6c1.7-0.8,3.1-2,4.4-3.2c1.2-1.3,2.2-2.8,2.8-4.4c0.3-0.8,0.6-1.6,0.7-2.5
		c0.2-0.8,0.3-1.8,0.2-2.4L199.6,58.8z"/>
</g>
</svg>
